# xmcd
#
# Track frame offsets: 
#        150
#        2925
#        17447
#        26291
#        38006
#        49335
#        62652
#        75914
#        85213
#        103581
#        112196
#        122043
#        136945
#        149210
#        156894
#        168460
#
# Disc length: 2286 seconds
#
# Revision: 0
# Processed by: cddbd v1.5.2PL0 Copyright (c) Steve Scherf et al.
# Submitted via: ExactAudioCopyFreeDBPlugin 1.0
#
DISCID=ce08ec10
DTITLE=Legendary shack shakers - agri dustrial
DYEAR=2012
DGENRE=Country
TTITLE0=Melungeon Melody
TTITLE1=Sin Eater
TTITLE2=Sugar Baby
TTITLE3=Nightride
TTITLE4=Dixie Iron Fist
TTITLE5=Two Tickets to Hell
TTITLE6=God Fearing People
TTITLE7=Greasy Creek
TTITLE8=Hammer and Tongs
TTITLE9=Hong-Eyed Man
TTITLE10=Dump Road Yodel
TTITLE11=Hoboes are my Heroes
TTITLE12=Everything I Ever Wanted to Do...
TTITLE13=The Hills of Hell
TTITLE14=The Lost Cause
TTITLE15=Killswitch
EXTD=
EXTT0=
EXTT1=
EXTT2=
EXTT3=
EXTT4=
EXTT5=
EXTT6=
EXTT7=
EXTT8=
EXTT9=
EXTT10=
EXTT11=
EXTT12=
EXTT13=
EXTT14=
EXTT15=
PLAYORDER=
